<svg width="760" height="620" viewBox="0 0 760 620" fill="none" xmlns="http://www.w3.org/2000/svg">
  <defs>
    <linearGradient id="bg" x1="106" y1="78" x2="650" y2="542" gradientUnits="userSpaceOnUse">
      <stop stop-color="#F0DEFA" />
      <stop offset="1" stop-color="#E6FBF7" />
    </linearGradient>
    <linearGradient id="accent" x1="153" y1="160" x2="531" y2="424" gradientUnits="userSpaceOnUse">
      <stop stop-color="#B86AD9" />
      <stop offset="1" stop-color="#5ED1C8" />
    </linearGradient>
  </defs>

  <rect x="68" y="54" width="624" height="512" rx="34" fill="url(#bg)" />
  <circle cx="172" cy="148" r="58" fill="#FFFFFF" fill-opacity="0.7" />
  <circle cx="616" cy="112" r="44" fill="#FFFFFF" fill-opacity="0.5" />
  <circle cx="618" cy="502" r="72" fill="#C5FFF4" fill-opacity="0.65" />

  <rect x="112" y="102" width="224" height="146" rx="22" fill="#FFFFFF" />
  <rect x="134" y="126" width="180" height="18" rx="9" fill="#EEDCF7" />
  <rect x="134" y="158" width="84" height="72" rx="18" fill="#202E43" />
  <path d="M158 171H196M177 152V248M146 200C160 188 198 189 214 202" stroke="#95F0E6" stroke-width="6" stroke-linecap="round" />
  <rect x="232" y="158" width="82" height="12" rx="6" fill="#D7F4EF" />
  <rect x="232" y="180" width="62" height="10" rx="5" fill="#D7F4EF" />
  <rect x="232" y="200" width="70" height="10" rx="5" fill="#EADCF2" />
  <rect x="232" y="220" width="48" height="10" rx="5" fill="#EADCF2" />

  <rect x="372" y="102" width="276" height="176" rx="26" fill="#FFFFFF" />
  <rect x="398" y="128" width="160" height="18" rx="9" fill="#EEDCF7" />
  <rect x="398" y="162" width="102" height="88" rx="18" fill="#1F2A37" />
  <path d="M420 212C440 168 484 168 504 212M438 178C448 168 472 170 484 183M448 226C456 212 470 204 484 204C500 204 512 211 522 226" stroke="#A1FFF4" stroke-width="6" stroke-linecap="round" />
  <rect x="526" y="166" width="96" height="12" rx="6" fill="#D7F4EF" />
  <rect x="526" y="188" width="76" height="10" rx="5" fill="#D7F4EF" />
  <rect x="526" y="208" width="84" height="10" rx="5" fill="#EADCF2" />
  <rect x="526" y="228" width="58" height="10" rx="5" fill="#EADCF2" />

  <rect x="116" y="294" width="230" height="190" rx="26" fill="#FFFFFF" />
  <rect x="140" y="318" width="124" height="18" rx="9" fill="#EEDCF7" />
  <circle cx="200" cy="398" r="48" fill="#DFFAF4" />
  <path d="M180 382C192 358 224 358 236 382M176 418C194 404 230 404 248 418" stroke="#2C7E83" stroke-width="6" stroke-linecap="round" />
  <path d="M251 357L292 382M251 438L292 416M161 358L140 340M160 439L142 458" stroke="#B86AD9" stroke-width="4" stroke-linecap="round" />
  <circle cx="292" cy="382" r="7" fill="#B86AD9" />
  <circle cx="292" cy="416" r="7" fill="#B86AD9" />
  <circle cx="140" cy="340" r="7" fill="#B86AD9" />
  <circle cx="142" cy="458" r="7" fill="#B86AD9" />

  <rect x="378" y="320" width="270" height="188" rx="28" fill="#FFFFFF" />
  <rect x="404" y="346" width="124" height="18" rx="9" fill="#D7F4EF" />
  <rect x="404" y="382" width="214" height="96" rx="20" fill="#202E43" />
  <rect x="430" y="404" width="42" height="54" rx="12" fill="#8CF2E8" />
  <rect x="482" y="392" width="42" height="66" rx="12" fill="#B86AD9" />
  <rect x="534" y="416" width="42" height="42" rx="12" fill="#8CF2E8" />
  <path d="M436 443L490 424L544 438L594 404" stroke="#FFFFFF" stroke-width="6" stroke-linecap="round" />

  <g transform="translate(264 224)">
    <circle cx="210" cy="148" r="114" fill="url(#accent)" fill-opacity="0.15" />
    <path d="M188 92C216 75 248 75 272 92C294 107 306 134 306 168V256H284L266 185L236 238L200 174L188 256H164V171C164 136 175 108 188 92Z" fill="#FFFFFF" />
    <path d="M245 125C273 125 297 147 297 178V217H277V178C277 161 263 147 245 147C227 147 213 161 213 178V217H193V178C193 147 217 125 245 125Z" fill="#1F2A37" />
    <circle cx="245" cy="103" r="31" fill="#1F2A37" />
    <rect x="199" y="215" width="94" height="68" rx="18" fill="#1F2A37" />
    <rect x="211" y="229" width="70" height="10" rx="5" fill="#D7F4EF" />
    <rect x="211" y="248" width="40" height="10" rx="5" fill="#EADCF2" />
    <rect x="261" y="248" width="20" height="10" rx="5" fill="#EADCF2" />
  </g>
</svg>
